<svg width="50.000000" height="50.000000" viewBox="0 0 50 50" fill="none" xmlns="http://www.w3.org/2000/svg" xmlns:xlink="http://www.w3.org/1999/xlink">
	<desc>
			Created with Pixso.
	</desc>
	<defs>
		<clipPath id="clip219_323">
			<rect id="camera 1" rx="-0.500000" width="49.000000" height="49.000000" transform="translate(0.500000 0.500000)" fill="white" fill-opacity="0"/>
		</clipPath>
	</defs>
	<rect id="camera 1" rx="-0.500000" width="49.000000" height="49.000000" transform="translate(0.500000 0.500000)" fill="#FFFFFF" fill-opacity="0"/>
	<g clip-path="url(#clip219_323)">
		<path id="Vector" d="M25 20.31C20.69 20.31 17.18 23.81 17.18 28.12C17.18 32.43 20.69 35.93 25 35.93C29.3 35.93 32.81 32.43 32.81 28.12C32.81 23.81 29.3 20.31 25 20.31ZM29.68 29.68C28.82 29.68 28.12 28.98 28.12 28.12C28.12 26.4 26.72 25 25 25C24.13 25 23.43 24.3 23.43 23.43C23.43 22.57 24.13 21.87 25 21.87C28.44 21.87 31.25 24.67 31.25 28.12C31.25 28.98 30.55 29.68 29.68 29.68Z" fill="#1D1D22" fill-opacity="1.000000" fill-rule="nonzero"/>
		<path id="Vector" d="M33.64 10.93L32.76 7.43C32.59 6.73 31.96 6.25 31.25 6.25L18.75 6.25C18.03 6.25 17.4 6.73 17.23 7.43L16.35 10.93L33.64 10.93Z" fill="#1D1D22" fill-opacity="1.000000" fill-rule="nonzero"/>
		<path id="Vector" d="M43.75 12.5L34.03 12.5L15.96 12.5L6.25 12.5C3.66 12.5 1.56 14.6 1.56 17.18L1.56 39.06C1.56 41.64 3.66 43.75 6.25 43.75L43.75 43.75C46.33 43.75 48.43 41.64 48.43 39.06L48.43 17.18C48.43 14.6 46.33 12.5 43.75 12.5ZM9.37 21.87C8.51 21.87 7.81 21.17 7.81 20.31C7.81 19.45 8.51 18.75 9.37 18.75C10.23 18.75 10.93 19.45 10.93 20.31C10.93 21.17 10.23 21.87 9.37 21.87ZM25 39.06C18.97 39.06 14.06 34.15 14.06 28.12C14.06 22.09 18.97 17.18 25 17.18C31.02 17.18 35.93 22.09 35.93 28.12C35.93 34.15 31.02 39.06 25 39.06Z" fill="#1D1D22" fill-opacity="1.000000" fill-rule="nonzero"/>
	</g>
</svg>
