<svg width="24.000000" height="24.000000" viewBox="0 0 24 24" fill="none" xmlns="http://www.w3.org/2000/svg" xmlns:xlink="http://www.w3.org/1999/xlink">
	<desc>
			Created with Pixso.
	</desc>
	<defs>
		<clipPath id="clip287_24">
			<rect id="car-engine (1) 1" rx="-0.500000" width="23.000000" height="23.000000" transform="translate(0.500000 0.500000)" fill="white" fill-opacity="0"/>
		</clipPath>
	</defs>
	<rect id="car-engine (1) 1" rx="-0.500000" width="23.000000" height="23.000000" transform="translate(0.500000 0.500000)" fill="#FFFFFF" fill-opacity="0"/>
	<g clip-path="url(#clip287_24)">
		<path id="Vector" d="M22 11.2L21.2 11.2C20.88 11.2 20.57 11.32 20.35 11.55C20.12 11.77 20 12.08 20 12.39L20 12.8L19.2 12.8L19.2 10.8C19.2 10.48 19.07 10.17 18.84 9.95C18.62 9.72 18.31 9.6 18 9.6L16.79 9.6C16.69 9.6 16.59 9.55 16.51 9.48C16.44 9.4 16.39 9.3 16.39 9.2L16.39 8.39C16.39 8.08 16.27 7.77 16.04 7.55C15.82 7.32 15.51 7.2 15.2 7.2L13.6 7.2L13.6 6L15.6 6C15.91 6 16.22 5.87 16.44 5.64C16.67 5.42 16.79 5.11 16.79 4.8C16.79 4.48 16.67 4.17 16.44 3.95C16.22 3.72 15.91 3.6 15.6 3.6L7.6 3.6C7.28 3.6 6.97 3.72 6.75 3.95C6.52 4.17 6.39 4.48 6.39 4.8C6.39 5.11 6.52 5.42 6.75 5.64C6.97 5.87 7.28 6 7.6 6L9.6 6L9.6 7.2L7.6 7.2C7.28 7.2 6.97 7.32 6.75 7.55C6.52 7.77 6.39 8.08 6.39 8.39C6.39 8.5 6.35 8.6 6.28 8.68C6.2 8.75 6.1 8.8 6 8.8L4.79 8.8C4.48 8.8 4.17 8.92 3.95 9.15C3.72 9.37 3.6 9.68 3.6 10L3.6 11.6L2.39 11.6L2.39 10C2.39 9.68 2.27 9.37 2.04 9.15C1.82 8.92 1.51 8.8 1.2 8.8C0.88 8.8 0.57 8.92 0.35 9.15C0.12 9.37 0 9.68 0 10L0 16.39C0 16.71 0.12 17.02 0.35 17.24C0.57 17.47 0.88 17.6 1.2 17.6C1.51 17.6 1.82 17.47 2.04 17.24C2.27 17.02 2.39 16.71 2.39 16.39L2.39 14.8L3.6 14.8L3.6 16.8C3.6 17.11 3.72 17.42 3.95 17.64C4.17 17.87 4.48 18 4.79 18L6.46 18C6.57 18 6.67 18.04 6.75 18.11L8.68 20.04C8.79 20.16 8.92 20.24 9.07 20.3C9.21 20.36 9.37 20.4 9.53 20.39L18 20.39C18.31 20.39 18.62 20.27 18.84 20.04C19.07 19.82 19.2 19.51 19.2 19.2L19.2 17.6L20 17.6L20 18C20 18.31 20.12 18.62 20.35 18.84C20.57 19.07 20.88 19.2 21.2 19.2L22 19.2C22.53 19.19 23.03 18.98 23.41 18.61C23.78 18.23 23.99 17.73 24 17.2L24 13.2C23.99 12.66 23.78 12.16 23.41 11.78C23.03 11.41 22.53 11.2 22 11.2ZM7.2 4.8C7.2 4.69 7.24 4.59 7.31 4.51C7.39 4.44 7.49 4.39 7.6 4.39L15.6 4.39C15.7 4.39 15.8 4.44 15.88 4.51C15.95 4.59 16 4.69 16 4.8C16 4.9 15.95 5 15.88 5.08C15.8 5.15 15.7 5.2 15.6 5.2L7.6 5.2C7.49 5.2 7.39 5.15 7.31 5.08C7.24 5 7.2 4.9 7.2 4.8ZM10.39 6L12.79 6L12.79 7.2L10.39 7.2L10.39 6ZM1.6 16.39C1.6 16.5 1.55 16.6 1.48 16.68C1.4 16.75 1.3 16.8 1.2 16.8C1.09 16.8 0.99 16.75 0.91 16.68C0.84 16.6 0.79 16.5 0.79 16.39L0.79 10C0.79 9.89 0.84 9.79 0.91 9.71C0.99 9.64 1.09 9.6 1.2 9.6C1.3 9.6 1.4 9.64 1.48 9.71C1.55 9.79 1.6 9.89 1.6 10L1.6 16.39ZM2.39 14L2.39 12.39L3.6 12.39L3.6 14L2.39 14ZM18.39 19.2C18.39 19.3 18.35 19.4 18.28 19.48C18.2 19.55 18.1 19.6 18 19.6L9.53 19.6C9.42 19.6 9.32 19.55 9.24 19.48L7.31 17.55C7.2 17.43 7.07 17.35 6.92 17.29C6.78 17.23 6.62 17.19 6.46 17.2L4.79 17.2C4.69 17.2 4.59 17.15 4.51 17.08C4.44 17 4.39 16.9 4.39 16.8L4.39 10C4.39 9.89 4.44 9.79 4.51 9.71C4.59 9.64 4.69 9.6 4.79 9.6L6 9.6C6.31 9.6 6.62 9.47 6.84 9.24C7.07 9.02 7.2 8.71 7.2 8.39C7.2 8.29 7.24 8.19 7.31 8.11C7.39 8.04 7.49 8 7.6 8L15.2 8C15.3 8 15.4 8.04 15.48 8.11C15.55 8.19 15.6 8.29 15.6 8.39L15.6 9.2C15.6 9.51 15.72 9.82 15.95 10.04C16.17 10.27 16.48 10.39 16.79 10.39L18 10.39C18.1 10.39 18.2 10.44 18.28 10.51C18.35 10.59 18.39 10.69 18.39 10.8L18.39 19.2ZM19.2 16.8L19.2 13.6L20 13.6L20 16.8L19.2 16.8ZM23.2 17.2C23.2 17.51 23.07 17.82 22.84 18.04C22.62 18.27 22.31 18.39 22 18.39L21.2 18.39C21.09 18.39 20.99 18.35 20.91 18.28C20.84 18.2 20.79 18.1 20.79 18L20.79 12.39C20.79 12.29 20.84 12.19 20.91 12.11C20.99 12.04 21.09 12 21.2 12L22 12C22.31 12 22.62 12.12 22.84 12.35C23.07 12.57 23.2 12.88 23.2 13.2L23.2 17.2Z" fill="#3AC22C" fill-opacity="1.000000" fill-rule="nonzero"/>
	</g>
</svg>
