<svg width="50.000000" height="50.000000" viewBox="0 0 50 50" fill="none" xmlns="http://www.w3.org/2000/svg" xmlns:xlink="http://www.w3.org/1999/xlink">
	<desc>
			Created with Pixso.
	</desc>
	<defs>
		<clipPath id="clip219_335">
			<rect id="custom-clearance 1" rx="-0.500000" width="49.000000" height="49.000000" transform="translate(0.500000 0.500000)" fill="white" fill-opacity="0"/>
		</clipPath>
	</defs>
	<rect id="custom-clearance 1" rx="-0.500000" width="49.000000" height="49.000000" transform="translate(0.500000 0.500000)" fill="#FFFFFF" fill-opacity="0"/>
	<g clip-path="url(#clip219_335)">
		<path id="Vector" d="M40.47 -0.36L9.52 -0.36C8.32 -0.36 7.17 0.12 6.32 0.97C5.47 1.82 5 2.97 5 4.17L5 45.82C5 47.02 5.47 48.17 6.32 49.02C7.17 49.87 8.32 50.35 9.52 50.35L40.47 50.35C41.67 50.35 42.82 49.87 43.67 49.02C44.52 48.17 44.99 47.02 45 45.82L45 4.17C44.99 2.97 44.52 1.82 43.67 0.97C42.82 0.12 41.67 -0.36 40.47 -0.36ZM12.32 19.92L17.03 19.92C17.75 19.93 18.44 20.21 18.95 20.72C19.45 21.23 19.74 21.92 19.74 22.64L19.74 27.35C19.74 28.07 19.45 28.76 18.95 29.27C18.44 29.78 17.75 30.06 17.03 30.07L12.32 30.07C11.6 30.06 10.91 29.78 10.4 29.27C9.89 28.76 9.61 28.07 9.6 27.35L9.6 22.64C9.61 21.92 9.89 21.23 10.4 20.72C10.91 20.21 11.6 19.93 12.32 19.92ZM9.6 12.59L9.6 7.88C9.61 7.16 9.89 6.47 10.4 5.96C10.91 5.46 11.6 5.17 12.32 5.17L17.03 5.17C17.75 5.17 18.44 5.46 18.95 5.96C19.45 6.47 19.74 7.16 19.74 7.88L19.74 12.59C19.74 13.31 19.45 14 18.95 14.51C18.44 15.02 17.75 15.31 17.03 15.31L12.32 15.31C11.6 15.31 10.91 15.02 10.4 14.51C9.89 14 9.61 13.31 9.6 12.59ZM12.32 34.68L17.03 34.68C17.75 34.68 18.44 34.97 18.95 35.48C19.45 35.99 19.74 36.68 19.74 37.4L19.74 42.11C19.74 42.83 19.45 43.52 18.95 44.03C18.44 44.53 17.75 44.82 17.03 44.82L12.32 44.82C11.6 44.82 10.91 44.53 10.4 44.03C9.89 43.52 9.61 42.83 9.6 42.11L9.6 37.4C9.61 36.68 9.89 35.99 10.4 35.48C10.91 34.97 11.6 34.68 12.32 34.68ZM22.09 22.41L37.56 22.41C37.8 22.41 38.03 22.51 38.19 22.68C38.36 22.85 38.45 23.07 38.45 23.31C38.45 23.55 38.36 23.78 38.19 23.95C38.03 24.12 37.8 24.21 37.56 24.22L22.09 24.22C21.85 24.21 21.62 24.12 21.46 23.95C21.29 23.78 21.2 23.55 21.2 23.31C21.2 23.07 21.29 22.85 21.46 22.68C21.62 22.51 21.85 22.41 22.09 22.41ZM21.18 11.92C21.18 11.68 21.28 11.45 21.45 11.28C21.62 11.11 21.85 11.02 22.09 11.02L34.76 11.02C35 11.02 35.23 11.11 35.4 11.28C35.57 11.45 35.66 11.68 35.66 11.92C35.66 12.16 35.57 12.39 35.4 12.56C35.23 12.73 35 12.83 34.76 12.83L22.09 12.83C21.85 12.83 21.62 12.73 21.45 12.56C21.28 12.39 21.18 12.16 21.18 11.92ZM22.09 25.77L34.76 25.77C34.99 25.78 35.22 25.87 35.39 26.04C35.55 26.21 35.65 26.44 35.65 26.68C35.65 26.92 35.55 27.15 35.39 27.31C35.22 27.48 34.99 27.58 34.76 27.58L22.09 27.58C21.85 27.58 21.62 27.48 21.46 27.31C21.29 27.14 21.2 26.92 21.2 26.68C21.2 26.44 21.29 26.21 21.46 26.04C21.62 25.87 21.85 25.78 22.09 25.77ZM22.09 37.16L37.56 37.16C37.8 37.17 38.03 37.26 38.19 37.43C38.36 37.6 38.45 37.83 38.45 38.07C38.45 38.31 38.36 38.53 38.19 38.7C38.03 38.87 37.8 38.97 37.56 38.97L22.09 38.97C21.85 38.97 21.62 38.87 21.46 38.7C21.29 38.53 21.2 38.31 21.2 38.07C21.2 37.83 21.29 37.6 21.46 37.43C21.62 37.26 21.85 37.17 22.09 37.16ZM22.09 40.53L34.76 40.53C34.99 40.53 35.22 40.63 35.39 40.8C35.55 40.97 35.65 41.2 35.65 41.44C35.65 41.67 35.55 41.9 35.39 42.07C35.22 42.24 34.99 42.34 34.76 42.34L22.09 42.34C21.85 42.34 21.62 42.24 21.46 42.07C21.29 41.9 21.2 41.67 21.2 41.44C21.2 41.2 21.29 40.97 21.46 40.8C21.62 40.63 21.85 40.53 22.09 40.53ZM37.56 9.46L22.09 9.46C21.85 9.46 21.62 9.36 21.46 9.19C21.29 9.02 21.2 8.79 21.2 8.55C21.2 8.32 21.29 8.09 21.46 7.92C21.62 7.75 21.85 7.65 22.09 7.65L37.56 7.65C37.8 7.65 38.03 7.75 38.19 7.92C38.36 8.09 38.45 8.32 38.45 8.55C38.45 8.79 38.36 9.02 38.19 9.19C38.03 9.36 37.8 9.46 37.56 9.46Z" fill="#1D1D22" fill-opacity="1.000000" fill-rule="nonzero"/>
		<path id="Vector" d="M12.32 6.98L17.03 6.98C17.53 6.98 17.93 7.38 17.93 7.88L17.93 12.59C17.93 13.09 17.53 13.5 17.03 13.5L12.32 13.5C11.82 13.5 11.41 13.09 11.41 12.59L11.41 7.88C11.41 7.38 11.82 6.98 12.32 6.98Z" fill="#1D1D22" fill-opacity="1.000000" fill-rule="evenodd"/>
		<path id="Vector" d="M12.32 21.74L17.03 21.74C17.53 21.74 17.93 22.14 17.93 22.64L17.93 27.35C17.93 27.85 17.53 28.25 17.03 28.25L12.32 28.25C11.82 28.25 11.41 27.85 11.41 27.35L11.41 22.64C11.41 22.14 11.82 21.74 12.32 21.74Z" fill="#1D1D22" fill-opacity="1.000000" fill-rule="evenodd"/>
		<path id="Vector" d="M12.32 36.49L17.03 36.49C17.53 36.49 17.93 36.9 17.93 37.4L17.93 42.11C17.93 42.61 17.53 43.01 17.03 43.01L12.32 43.01C11.82 43.01 11.41 42.61 11.41 42.11L11.41 37.4C11.41 36.9 11.82 36.49 12.32 36.49Z" fill="#1D1D22" fill-opacity="1.000000" fill-rule="evenodd"/>
	</g>
</svg>
