<svg width="50.000000" height="50.000000" viewBox="0 0 50 50" fill="none" xmlns="http://www.w3.org/2000/svg" xmlns:xlink="http://www.w3.org/1999/xlink">
	<desc>
			Created with Pixso.
	</desc>
	<defs>
		<clipPath id="clip219_330">
			<rect id="contract (1) 1" rx="-0.500000" width="49.000000" height="49.000000" transform="translate(0.500000 0.500000)" fill="white" fill-opacity="0"/>
		</clipPath>
	</defs>
	<rect id="contract (1) 1" rx="-0.500000" width="49.000000" height="49.000000" transform="translate(0.500000 0.500000)" fill="#FFFFFF" fill-opacity="0"/>
	<g clip-path="url(#clip219_330)">
		<path id="Vector" d="M1.46 8.78L10.25 8.78L10.25 35.25L1.46 35.25L1.46 8.78Z" fill="#1D1D22" fill-opacity="1.000000" fill-rule="nonzero"/>
		<path id="Vector" d="M1.46 38.43C1.46 41.28 2.5 43.98 4.39 46.09L4.39 48.53C4.39 49.34 5.05 50 5.85 50C6.66 50 7.32 49.34 7.32 48.53L7.32 46.09C9.21 43.98 10.25 41.28 10.25 38.43L10.25 38.18L1.46 38.18L1.46 38.43Z" fill="#1D1D22" fill-opacity="1.000000" fill-rule="nonzero"/>
		<path id="Vector" d="M5.85 0C3.43 0 1.46 1.97 1.46 4.39L1.46 5.85L10.25 5.85L10.25 4.39C10.25 1.97 8.28 0 5.85 0Z" fill="#1D1D22" fill-opacity="1.000000" fill-rule="nonzero"/>
		<path id="Vector" d="M47.07 0L14.64 0C13.83 0 13.18 0.65 13.18 1.46L13.18 48.53C13.18 49.34 13.83 50 14.64 50L47.07 50C47.87 50 48.53 49.34 48.53 48.53L48.53 1.46C48.53 0.65 47.87 0 47.07 0ZM26.46 8.78L35.25 8.78C36.06 8.78 36.71 9.44 36.71 10.25C36.71 11.06 36.06 11.71 35.25 11.71L26.46 11.71C25.65 11.71 25 11.06 25 10.25C25 9.44 25.65 8.78 26.46 8.78ZM42.07 40.75C42.02 40.8 40.83 41.81 39.46 42.72C38.33 43.46 36.99 44.21 35.8 44.21C35.27 44.21 34.77 44.07 34.33 43.72C33.66 43.18 33.58 42.43 33.66 41.73C33.28 42 32.91 42.29 32.64 42.5C32.07 42.94 31.54 43.35 31.05 43.64C29.72 44.44 28.87 44.09 28.4 43.65C27.1 42.46 27.51 40.49 27.84 38.91C27.88 38.72 27.92 38.5 27.97 38.28C27.4 38.59 26.53 39.18 25.21 40.27C23.67 41.54 22.18 42.97 21.54 43.61C20.97 44.18 20.04 44.18 19.47 43.61C18.9 43.04 18.89 42.11 19.46 41.54C20.19 40.81 21.86 39.22 23.56 37.83C26.85 35.15 28.2 34.89 29.08 34.98C29.73 35.05 30.28 35.39 30.62 35.93C31.25 36.9 30.99 38.17 30.71 39.51C30.65 39.76 30.58 40.09 30.53 40.43C30.64 40.34 30.74 40.26 30.84 40.18C32.54 38.87 34.29 37.5 35.92 38.34C36.24 38.51 36.98 39.03 36.9 40.28C36.89 40.49 36.86 40.69 36.82 40.89C37.74 40.4 39.04 39.49 40.15 38.53C40.76 38.01 41.69 38.07 42.22 38.69C42.75 39.3 42.68 40.22 42.07 40.75ZM41.11 32.32L20.5 32.32C19.69 32.32 19.04 31.66 19.04 30.85C19.04 30.05 19.69 29.39 20.5 29.39L41.11 29.39C41.92 29.39 42.57 30.05 42.57 30.85C42.57 31.66 41.92 32.32 41.11 32.32ZM41.11 26.46L20.5 26.46C19.69 26.46 19.04 25.8 19.04 25C19.04 24.19 19.69 23.53 20.5 23.53L41.11 23.53C41.92 23.53 42.57 24.19 42.57 25C42.57 25.8 41.92 26.46 41.11 26.46ZM41.11 20.6L20.5 20.6C19.69 20.6 19.04 19.94 19.04 19.14C19.04 18.33 19.69 17.67 20.5 17.67L41.11 17.67C41.92 17.67 42.57 18.33 42.57 19.14C42.57 19.94 41.92 20.6 41.11 20.6Z" fill="#1D1D22" fill-opacity="1.000000" fill-rule="nonzero"/>
	</g>
</svg>
