<svg width="50.000000" height="50.000000" viewBox="0 0 50 50" fill="none" xmlns="http://www.w3.org/2000/svg" xmlns:xlink="http://www.w3.org/1999/xlink">
	<desc>
			Created with Pixso.
	</desc>
	<defs>
		<clipPath id="clip219_313">
			<rect id="car 1" rx="-0.500000" width="49.000000" height="49.000000" transform="translate(0.500000 0.500000)" fill="white" fill-opacity="0"/>
		</clipPath>
	</defs>
	<rect id="car 1" rx="-0.500000" width="49.000000" height="49.000000" transform="translate(0.500000 0.500000)" fill="#FFFFFF" fill-opacity="0"/>
	<g clip-path="url(#clip219_313)">
		<path id="Vector" d="M0 33.3C0 36.26 2.4 38.67 5.37 38.67L44.62 38.67C47.59 38.67 50 36.26 50 33.3L0 33.3Z" fill="#1D1D22" fill-opacity="1.000000" fill-rule="nonzero"/>
		<path id="Vector" d="M16.69 22.55C16.69 23.36 16.04 24.02 15.23 24.02C14.42 24.02 13.76 23.36 13.76 22.55C13.76 21.74 14.42 21.09 15.23 21.09C16.04 21.09 16.69 21.74 16.69 22.55Z" fill="#1D1D22" fill-opacity="1.000000" fill-rule="evenodd"/>
		<path id="Vector" d="M19.62 7.42L14.03 7.42C13.02 7.42 12.1 8.05 11.74 9L10.51 12.3L19.62 12.3L19.62 7.42Z" fill="#1D1D22" fill-opacity="1.000000" fill-rule="nonzero"/>
		<path id="Vector" d="M29.19 8.78C28.55 7.93 27.53 7.42 26.46 7.42L22.55 7.42L22.55 12.3L31.83 12.3L29.19 8.78Z" fill="#1D1D22" fill-opacity="1.000000" fill-rule="nonzero"/>
		<path id="Vector" d="M44.62 0.09L5.37 0.09C2.4 0.09 0 2.5 0 5.46L0 30.37L50 30.37L50 5.46C50 2.5 47.59 0.09 44.62 0.09ZM43.06 22.55C43.06 23.36 42.41 24.02 41.6 24.02L38.9 24.02C38.3 25.72 36.67 26.95 34.76 26.95C32.85 26.95 31.22 25.72 30.62 24.02L19.37 24.02C18.77 25.72 17.14 26.95 15.23 26.95C13.32 26.95 11.69 25.72 11.09 24.02L8.39 24.02C7.58 24.02 6.93 23.36 6.93 22.55L6.93 13.76C6.93 13.59 6.96 13.41 7.02 13.25L9 7.97C9.78 5.89 11.8 4.49 14.03 4.49L26.46 4.49C28.45 4.49 30.35 5.44 31.54 7.03L35.49 12.3L35.74 12.3C39.78 12.3 43.06 15.59 43.06 19.62L43.06 22.55Z" fill="#1D1D22" fill-opacity="1.000000" fill-rule="nonzero"/>
		<path id="Vector" d="M36.23 22.55C36.23 23.36 35.57 24.02 34.76 24.02C33.95 24.02 33.3 23.36 33.3 22.55C33.3 21.74 33.95 21.09 34.76 21.09C35.57 21.09 36.23 21.74 36.23 22.55Z" fill="#1D1D22" fill-opacity="1.000000" fill-rule="evenodd"/>
		<path id="Vector" d="M35.74 15.23L9.86 15.23L9.86 21.09L11.09 21.09C11.69 19.38 13.32 18.16 15.23 18.16C17.14 18.16 18.77 19.38 19.37 21.09L30.62 21.09C31.22 19.38 32.85 18.16 34.76 18.16C36.67 18.16 38.3 19.38 38.9 21.09L40.13 21.09L40.13 19.62C40.13 17.2 38.16 15.23 35.74 15.23Z" fill="#1D1D22" fill-opacity="1.000000" fill-rule="nonzero"/>
		<path id="Vector" d="M40.62 46.97L37.94 46.97C35.56 46.09 33.86 44.04 33.41 41.6L16.58 41.6C16.13 44.04 14.43 46.09 12.05 46.97L9.37 46.97C8.56 46.97 7.91 47.62 7.91 48.43C7.91 49.24 8.56 49.9 9.37 49.9L40.62 49.9C41.43 49.9 42.08 49.24 42.08 48.43C42.08 47.62 41.43 46.97 40.62 46.97Z" fill="#1D1D22" fill-opacity="1.000000" fill-rule="nonzero"/>
	</g>
</svg>
