<svg width="180.000000" height="46.000000" viewBox="0 0 180 46" fill="none" xmlns="http://www.w3.org/2000/svg" xmlns:xlink="http://www.w3.org/1999/xlink">
	<desc>
			Created with Pixso.
	</desc>
	<defs>
		<clipPath id="clip214_117">
			<rect id="forsage_auto" rx="-0.241287" width="179.517426" height="45.517426" transform="translate(0.241287 0.241287)" fill="white" fill-opacity="0"/>
		</clipPath>
	</defs>
	<rect id="forsage_auto" rx="-0.241287" width="179.517426" height="45.517426" transform="translate(0.241287 0.241287)" fill="#FFFFFF" fill-opacity="0"/>
	<g clip-path="url(#clip214_117)">
		<path id="Vector" d="M4.04 44.76L5.53 40.43L15.16 40.43L16.15 37.64L6.52 37.64L6.96 36.38L16.61 36.38L17.66 33.31L6.54 33.31C6.33 33.31 6.09 33.37 5.83 33.47C5.57 33.58 5.32 33.72 5.07 33.9C4.84 34.07 4.64 34.27 4.45 34.5C4.27 34.71 4.14 34.93 4.06 35.16L0.73 44.76L4.04 44.76ZM31.61 33.31L20.97 33.31C20.75 33.31 20.52 33.37 20.26 33.47C20 33.58 19.74 33.72 19.5 33.9C19.27 34.07 19.06 34.27 18.88 34.5C18.69 34.71 18.56 34.93 18.49 35.16L15.8 42.91C15.72 43.14 15.7 43.37 15.73 43.6C15.76 43.81 15.83 44.01 15.94 44.19C16.06 44.36 16.21 44.49 16.4 44.6C16.58 44.71 16.78 44.76 16.99 44.76L27.63 44.76C27.85 44.76 28.08 44.71 28.34 44.6C28.6 44.49 28.85 44.36 29.08 44.19C29.32 44.01 29.54 43.81 29.72 43.6C29.91 43.37 30.04 43.14 30.11 42.91L32.8 35.16C32.88 34.93 32.9 34.71 32.87 34.5C32.84 34.27 32.76 34.07 32.64 33.9C32.53 33.72 32.39 33.58 32.2 33.47C32.02 33.37 31.82 33.31 31.61 33.31ZM29.08 36.38L27.22 41.69L19.52 41.69L21.38 36.38L29.08 36.38ZM33.41 37.64L30.93 44.76L34.24 44.76L35.73 40.43L39.41 40.43L41.29 44.76L44.74 44.76L43.06 40.43L44 40.43C44.22 40.43 44.45 40.38 44.71 40.28C44.97 40.17 45.22 40.03 45.45 39.87C45.69 39.68 45.91 39.49 46.09 39.27C46.28 39.05 46.41 38.82 46.48 38.59L47.68 35.16C47.75 34.93 47.78 34.71 47.75 34.5C47.72 34.27 47.64 34.07 47.52 33.9C47.41 33.72 47.26 33.58 47.08 33.47C46.9 33.37 46.7 33.31 46.48 33.31L34.9 33.31L33.85 36.38L43.96 36.38L43.52 37.64L33.41 37.64ZM58.03 40.43L57.59 41.69L46.86 41.69L45.8 44.76L58 44.76C58.22 44.76 58.46 44.71 58.72 44.6C58.98 44.49 59.22 44.36 59.45 44.19C59.7 44.01 59.91 43.81 60.09 43.6C60.28 43.37 60.41 43.14 60.49 42.91L61.68 39.48C61.76 39.25 61.78 39.03 61.75 38.82C61.72 38.59 61.64 38.39 61.52 38.23C61.41 38.05 61.27 37.9 61.08 37.8C60.9 37.69 60.7 37.64 60.49 37.64L51.59 37.64L52.03 36.38L62.76 36.38L63.82 33.31L51.62 33.31C51.4 33.31 51.17 33.37 50.9 33.47C50.64 33.58 50.39 33.72 50.15 33.9C49.92 34.07 49.71 34.27 49.53 34.5C49.34 34.71 49.21 34.93 49.14 35.16L47.94 38.59C47.86 38.82 47.84 39.05 47.87 39.27C47.9 39.49 47.97 39.68 48.08 39.87C48.2 40.03 48.35 40.17 48.54 40.28C48.72 40.38 48.92 40.43 49.14 40.43L58.03 40.43ZM66.18 42.85L72.36 42.85L72.66 44.76L76.09 44.76L74.75 34.95C74.68 34.41 74.52 34 74.29 33.72C74.08 33.45 73.71 33.31 73.19 33.31L71.74 33.31C70.7 33.31 69.72 33.86 68.8 34.95L60.67 44.76L64.58 44.76L66.18 42.85ZM72.02 40.12L68.48 40.12L71.51 36.68L72.02 40.12ZM89.38 40.43L88.94 41.69L81.29 41.69L83.15 36.38L94.11 36.38L95.16 33.31L82.74 33.31C82.52 33.31 82.28 33.37 82.02 33.47C81.76 33.58 81.51 33.72 81.27 33.9C81.04 34.07 80.83 34.27 80.65 34.5C80.46 34.71 80.33 34.93 80.25 35.16L77.57 42.91C77.49 43.14 77.47 43.37 77.5 43.6C77.53 43.81 77.6 44.01 77.7 44.19C77.83 44.36 77.98 44.49 78.16 44.6C78.35 44.71 78.55 44.76 78.76 44.76L89.35 44.76C89.57 44.76 89.8 44.71 90.06 44.6C90.33 44.49 90.57 44.36 90.8 44.19C91.04 44.01 91.26 43.81 91.44 43.6C91.63 43.37 91.76 43.14 91.83 42.91L93.03 39.48C93.1 39.25 93.13 39.03 93.1 38.82C93.07 38.59 92.99 38.39 92.87 38.23C92.76 38.05 92.62 37.9 92.43 37.8C92.25 37.69 92.05 37.64 91.83 37.64L84.85 37.64L83.86 40.43L89.38 40.43ZM94.49 44.76L105.61 44.76L106.67 41.69L97.02 41.69L97.45 40.43L107.08 40.43L108.07 37.64L98.44 37.64L98.88 36.38L108.53 36.38L109.58 33.31L98.46 33.31C98.25 33.31 98.01 33.37 97.75 33.47C97.49 33.58 97.24 33.72 96.99 33.9C96.76 34.07 96.56 34.27 96.37 34.5C96.19 34.71 96.06 34.93 95.98 35.16L93.29 42.91C93.22 43.14 93.19 43.37 93.23 43.6C93.26 43.81 93.32 44.01 93.43 44.19C93.55 44.36 93.71 44.49 93.89 44.6C94.08 44.71 94.27 44.76 94.49 44.76ZM120.48 42.85L126.66 42.85L126.96 44.76L130.38 44.76L129.05 34.95C128.97 34.41 128.82 34 128.59 33.72C128.38 33.45 128.01 33.31 127.49 33.31L126.04 33.31C125 33.31 124.02 33.86 123.1 34.95L114.97 44.76L118.87 44.76L120.48 42.85ZM126.32 40.12L122.78 40.12L125.81 36.68L126.32 40.12ZM135.58 41.69L138.5 33.31L135.19 33.31L131.86 42.91C131.79 43.14 131.76 43.37 131.79 43.6C131.82 43.81 131.89 44.01 132 44.19C132.12 44.36 132.28 44.49 132.46 44.6C132.64 44.71 132.84 44.76 133.06 44.76L143.65 44.76C143.86 44.76 144.1 44.71 144.36 44.6C144.62 44.49 144.87 44.36 145.1 44.19C145.34 44.01 145.56 43.81 145.74 43.6C145.92 43.37 146.05 43.14 146.13 42.91L149.46 33.31L146.15 33.31L143.23 41.69L135.58 41.69ZM149.86 36.38L155.08 36.38L152.16 44.76L155.47 44.76L158.39 36.38L163.6 36.38L164.66 33.31L150.92 33.31L149.86 36.38ZM178.61 33.31L167.97 33.31C167.76 33.31 167.52 33.37 167.26 33.47C167 33.58 166.75 33.72 166.5 33.9C166.27 34.07 166.06 34.27 165.88 34.5C165.7 34.71 165.57 34.93 165.49 35.16L162.8 42.91C162.73 43.14 162.7 43.37 162.73 43.6C162.76 43.81 162.83 44.01 162.94 44.19C163.06 44.36 163.22 44.49 163.4 44.6C163.58 44.71 163.78 44.76 164 44.76L174.63 44.76C174.85 44.76 175.09 44.71 175.35 44.6C175.61 44.49 175.85 44.36 176.08 44.19C176.33 44.01 176.54 43.81 176.72 43.6C176.91 43.37 177.04 43.14 177.12 42.91L179.8 35.16C179.88 34.93 179.9 34.71 179.87 34.5C179.84 34.27 179.76 34.07 179.64 33.9C179.53 33.72 179.39 33.58 179.21 33.47C179.02 33.37 178.82 33.31 178.61 33.31ZM176.08 36.38L174.22 41.69L166.52 41.69L168.38 36.38L176.08 36.38Z" fill="#FFFFFF" fill-opacity="1.000000" fill-rule="nonzero"/>
		<path id="Vector" d="M82.59 23.07C77.66 23.03 72.73 23.03 67.79 23.01C62.86 23.03 57.93 23.03 52.99 23.07L45.59 23.14C43.13 23.18 40.66 23.21 38.19 23.26C40.66 23.32 43.13 23.34 45.59 23.38L52.99 23.45C57.93 23.49 62.86 23.49 67.79 23.51C72.73 23.49 77.66 23.49 82.59 23.45L89.99 23.38C92.46 23.34 94.93 23.32 97.39 23.26C94.93 23.21 92.46 23.18 89.99 23.14L82.59 23.07ZM73.83 13.31C72.52 13.61 71.17 13.8 69.82 13.92C70.5 13.94 71.18 13.9 71.86 13.85C72.54 13.81 73.22 13.72 73.89 13.6C74.57 13.49 75.24 13.33 75.89 13.1C76.55 12.88 77.19 12.58 77.75 12.13L78 11.93L77.73 11.77C76.88 11.25 76 10.84 75.07 10.51C74.6 10.35 74.12 10.22 73.62 10.15C73.12 10.07 72.6 10.05 72.09 10.17C71.6 10.29 71.14 10.46 70.69 10.64C70.23 10.81 69.79 11 69.35 11.2C68.9 11.39 68.46 11.6 68.03 11.82C67.6 12.03 67.16 12.25 66.74 12.48L68.1 11.97L69.46 11.48C70.36 11.16 71.28 10.82 72.19 10.61C72.62 10.52 73.09 10.55 73.54 10.62C74 10.7 74.46 10.83 74.9 10.98C75.69 11.24 76.45 11.6 77.19 11.99C76.76 12.3 76.26 12.53 75.76 12.73C75.14 12.97 74.49 13.15 73.83 13.31ZM150.98 22.53C149.87 22.41 148.75 22.39 147.64 22.42C145.41 22.51 143.19 22.89 141.08 23.59C138.97 24.28 136.96 25.29 135.18 26.59C137.07 25.45 139.1 24.58 141.2 23.96C143.3 23.35 145.47 23 147.66 22.92C149.84 22.84 152.04 23.02 154.18 23.48C156.32 23.93 158.41 24.65 160.39 25.62C158.5 24.48 156.43 23.63 154.27 23.1C153.19 22.82 152.09 22.64 150.98 22.53ZM21.71 23.02C20.17 23.09 18.63 23.36 17.17 23.85C15.71 24.34 14.33 25.06 13.12 25.98C14.44 25.22 15.84 24.64 17.29 24.22C18.74 23.81 20.23 23.58 21.73 23.52C23.23 23.47 24.73 23.59 26.21 23.89C27.68 24.19 29.12 24.67 30.5 25.31C29.22 24.5 27.79 23.89 26.3 23.51C24.8 23.12 23.25 22.97 21.71 23.02ZM141.74 9.65C140.34 9.25 138.93 8.86 137.52 8.49C136.1 8.11 134.68 7.76 133.26 7.43C134.64 7.9 136.04 8.35 137.44 8.77C138.83 9.2 140.24 9.61 141.64 10.01C143.05 10.41 144.46 10.8 145.87 11.17C147.28 11.54 148.7 11.9 150.13 12.23C148.74 11.76 147.35 11.31 145.95 10.89C144.55 10.46 143.15 10.05 141.74 9.65ZM108.1 14.5C107.73 14.51 107.36 14.52 106.99 14.54C105.5 14.58 104 14.62 102.51 14.65L93.55 14.83L58.72 15.4C61.37 13.83 64.06 12.32 66.78 10.87C68.29 10.06 69.81 9.27 71.35 8.51C72.88 7.76 74.44 7.03 76.02 6.38C77.6 5.73 79.21 5.11 80.87 4.78C82.55 4.49 84.26 4.29 85.97 4.14C89.4 3.84 92.84 3.73 96.27 3.74C92.84 3.63 89.39 3.69 85.96 3.92C84.24 4.04 82.52 4.19 80.81 4.47C79.1 4.8 77.48 5.4 75.88 6.03C74.27 6.67 72.71 7.39 71.16 8.12C69.6 8.87 68.07 9.64 66.54 10.43C63.5 12.03 60.5 13.71 57.54 15.46L56.67 15.97L57.69 15.96C63.67 15.88 69.65 15.82 75.62 15.71L93.56 15.34C96.55 15.28 99.53 15.19 102.52 15.09C104.02 15.05 105.51 14.99 107.01 14.93C107.75 14.9 108.5 14.86 109.25 14.82C109.62 14.81 110 14.77 110.37 14.74L110.94 14.7C111.13 14.67 111.31 14.64 111.5 14.61C112.98 14.35 114.43 13.99 115.88 13.61C117.33 13.23 118.77 12.83 120.2 12.41C121.64 12 123.07 11.57 124.49 11.13C125.21 10.91 125.92 10.68 126.63 10.44L127.69 10.08L128.21 9.89C128.39 9.82 128.57 9.77 128.72 9.66C128.57 9.76 128.38 9.81 128.21 9.88L127.68 10.05L126.61 10.39L124.46 11.02C123.03 11.44 121.59 11.84 120.15 12.23C118.71 12.61 117.26 12.99 115.81 13.34C114.36 13.68 112.91 14.04 111.44 14.28C110.51 14.4 109.55 14.45 108.6 14.48L109.99 5.48L108.1 14.5ZM121.36 14.73C125.36 13.44 129.29 11.99 133.2 10.47L133.6 10.31L133.3 10.03C132.4 9.18 131.46 8.39 130.48 7.65C129.98 7.28 129.48 6.93 128.95 6.61C128.42 6.29 127.86 5.99 127.25 5.79L127.02 5.72L126.8 5.66L126.34 5.55C126.04 5.5 125.73 5.44 125.43 5.39C124.82 5.3 124.21 5.22 123.6 5.16C122.38 5.03 121.15 4.94 119.93 4.87C117.48 4.72 115.04 4.63 112.59 4.53C110.15 4.44 107.7 4.36 105.25 4.29L112.58 4.72C115.03 4.86 117.47 5.01 119.91 5.2C121.12 5.3 122.34 5.41 123.55 5.55C124.16 5.62 124.76 5.7 125.36 5.8C125.66 5.85 125.95 5.92 126.25 5.97L126.68 6.09L126.9 6.14L127.11 6.21C127.66 6.4 128.19 6.69 128.7 7C129.21 7.32 129.7 7.67 130.18 8.04C131.02 8.69 131.83 9.39 132.6 10.12C130.78 10.8 128.95 11.46 127.11 12.11C125.13 12.79 123.15 13.48 121.16 14.11C119.17 14.75 117.17 15.35 115.14 15.85C114.64 15.96 114.13 16.1 113.62 16.18L112.86 16.33C112.61 16.36 112.35 16.39 112.1 16.42L111.72 16.47L111.33 16.48L110.55 16.51C110.04 16.54 109.51 16.54 108.99 16.56C104.8 16.66 100.6 16.69 96.41 16.76L83.83 16.95L71.24 17.14L58.66 17.4C54.46 17.5 50.27 17.6 46.08 17.74C41.88 17.9 37.69 18.03 33.5 18.3C41.89 18.03 50.28 17.99 58.67 17.89L71.25 17.77L83.83 17.63C92.22 17.54 100.61 17.48 109.01 17.26C109.53 17.24 110.05 17.24 110.58 17.21L111.38 17.17L111.77 17.16L112.17 17.11C112.44 17.07 112.71 17.04 112.97 17L113.76 16.85C114.28 16.76 114.79 16.62 115.31 16.5C117.35 15.99 119.36 15.38 121.36 14.73ZM158.95 14.89C156.46 14.6 153.97 14.41 151.46 14.29C148.96 14.19 146.45 14.19 143.95 14.27C141.44 14.35 138.94 14.55 136.45 14.83C133.96 15.11 131.48 15.44 129.02 15.87C124.08 16.69 119.19 17.74 114.37 19.05C116.82 18.55 119.26 18.06 121.72 17.64C124.18 17.2 126.64 16.8 129.11 16.44C131.58 16.09 134.05 15.77 136.53 15.53C137.76 15.4 139 15.3 140.25 15.2L142.11 15.09C142.73 15.05 143.35 15.04 143.97 15.01C148.95 14.83 153.93 15.01 158.89 15.47C163.85 15.92 168.8 16.63 173.73 17.39C171.29 16.86 168.84 16.4 166.38 15.96C163.91 15.54 161.44 15.17 158.95 14.89ZM13.19 18.86C10.95 19.31 8.72 19.81 6.51 20.41C5.41 20.71 4.31 21.02 3.22 21.37C2.13 21.72 1.05 22.09 0 22.54C1.04 22.07 2.12 21.68 3.2 21.31C4.28 20.93 5.37 20.59 6.47 20.28C8.67 19.65 10.9 19.11 13.14 18.64C15.38 18.17 17.64 17.76 19.9 17.4C22.17 17.07 24.44 16.77 26.72 16.54C31.28 16.07 35.85 15.73 40.43 15.47C44.97 15.22 49.51 15.01 54.06 14.92C56.25 13.44 58.49 12.05 60.76 10.72C63.07 9.37 65.41 8.09 67.81 6.91C70.2 5.72 72.65 4.63 75.17 3.71C76.43 3.24 77.71 2.83 79.01 2.49C80.31 2.14 81.64 1.86 82.99 1.7C88.32 1.11 93.67 0.99 99.02 1.01C104.37 1.06 109.71 1.28 115.04 1.75C117.7 1.98 120.36 2.28 123.01 2.67C124.33 2.86 125.65 3.1 126.97 3.34L128.93 3.77C129.58 3.91 130.23 4.08 130.88 4.23C133.48 4.88 136.05 5.59 138.61 6.36C141.17 7.12 143.71 7.92 146.25 8.73C148.79 9.55 151.33 10.38 153.86 11.21C155.12 11.63 156.39 12.05 157.66 12.45C158.92 12.86 160.2 13.27 161.48 13.58C162.12 13.75 162.78 13.76 163.44 13.78L164.44 13.77L165.43 13.73C166.76 13.66 168.09 13.56 169.42 13.43C172.07 13.16 174.72 12.84 177.36 12.47C174.73 12.89 172.09 13.27 169.43 13.57C168.11 13.72 166.78 13.85 165.45 13.94L164.44 13.99L163.44 14.02C162.77 14 162.08 14.01 161.42 13.84C160.11 13.55 158.84 13.15 157.56 12.76C156.28 12.38 155.01 11.98 153.74 11.57C151.2 10.77 148.66 9.95 146.11 9.16C143.57 8.37 141.02 7.6 138.46 6.86C135.9 6.12 133.33 5.43 130.74 4.81C130.09 4.66 129.45 4.5 128.8 4.36L126.84 3.96C125.54 3.72 124.23 3.49 122.91 3.31C120.28 2.92 117.63 2.63 114.98 2.42C109.67 1.96 104.34 1.76 99.02 1.73C93.69 1.72 88.36 1.88 83.07 2.43C81.77 2.58 80.48 2.85 79.2 3.18C77.92 3.51 76.66 3.92 75.42 4.37C72.93 5.27 70.5 6.35 68.12 7.52C65.74 8.69 63.4 9.96 61.1 11.29C58.81 12.62 56.55 14.02 54.35 15.5L54.27 15.55L54.17 15.56C49.6 15.64 45.02 15.78 40.46 16C35.89 16.22 31.32 16.52 26.77 16.95C24.49 17.16 22.22 17.43 19.95 17.73C17.69 18.06 15.43 18.43 13.19 18.86Z" fill="#3AC22C" fill-opacity="1.000000" fill-rule="nonzero"/>
		<path id="Vector" d="M6.63 20.87L6.64 20.87Q9.72 20.04 13.28 19.34Q16.33 18.74 20.02 18.21Q23.95 17.69 26.81 17.43Q32.98 16.84 40.48 16.49Q47 16.17 54.18 16.04L54.42 16.03L54.62 15.9Q57.65 13.86 61.35 11.71Q65 9.59 68.33 7.95Q72.26 6.03 75.58 4.83Q77.54 4.11 79.32 3.65Q81.38 3.11 83.12 2.91Q86.85 2.52 91.05 2.35Q94.69 2.2 99.01 2.21Q107.61 2.27 114.94 2.9Q119.04 3.23 122.85 3.78Q123.73 3.91 124.8 4.09Q125.53 4.21 126.75 4.44L126.76 4.44L128.69 4.84Q129.11 4.93 129.95 5.12Q130.4 5.23 130.63 5.28Q134.39 6.19 138.33 7.33Q141.77 8.32 145.97 9.62L153.59 12.03L154.4 12.29L157.42 13.23Q157.52 13.26 157.71 13.32Q158.9 13.67 159.49 13.84Q160.5 14.13 161.31 14.31Q161.75 14.42 162.3 14.46Q162.62 14.48 163.24 14.5Q163.37 14.5 163.43 14.5L163.44 14.5L164.46 14.47L165.48 14.42Q167.28 14.3 169.49 14.05Q173.07 13.65 177.43 12.95Q177.44 12.95 177.44 12.95L177.3 11.99Q177.29 11.99 177.29 11.99Q173.53 12.53 169.37 12.95Q167.2 13.16 165.41 13.25L164.43 13.29L164.42 13.29L163.45 13.3Q163.37 13.3 163.24 13.29Q162.66 13.27 162.39 13.25Q161.94 13.21 161.6 13.12L161.6 13.11L161.59 13.11Q160.81 12.92 159.83 12.63Q159.24 12.45 158.06 12.08Q157.89 12.02 157.81 12L154.01 10.75L146.4 8.27Q142.22 6.93 138.75 5.9Q134.79 4.71 130.99 3.76Q130.76 3.71 130.3 3.6Q129.46 3.39 129.03 3.29L127.06 2.87L127.06 2.87Q125.81 2.64 125.07 2.51Q123.98 2.32 123.08 2.19Q119.23 1.62 115.08 1.27Q107.68 0.61 99.02 0.53Q94.49 0.52 90.98 0.65Q86.66 0.81 82.93 1.23Q81.07 1.44 78.89 2.02Q77.03 2.51 75.01 3.25Q71.6 4.5 67.59 6.47Q64.22 8.14 60.52 10.3Q56.91 12.42 53.91 14.44Q48.04 14.57 40.4 14.99Q32.86 15.42 26.68 16.06Q23.52 16.38 19.83 16.93Q16.12 17.52 13.04 18.16Q9.45 18.93 6.34 19.82Q4.57 20.32 3.04 20.85Q1.06 21.53 -0.2 22.09L0.18 22.98Q1.41 22.46 3.37 21.83Q4.64 21.42 6.63 20.87ZM54.06 14.92C49.51 15.01 44.97 15.22 40.43 15.47C38.55 15.58 36.67 15.7 34.79 15.84C32.1 16.03 29.41 16.26 26.72 16.54C24.44 16.77 22.17 17.07 19.9 17.4C17.64 17.76 15.38 18.17 13.14 18.64C10.9 19.11 8.67 19.65 6.47 20.28C5.37 20.59 4.28 20.93 3.2 21.31C2.12 21.68 1.04 22.07 0 22.54C1.05 22.09 2.13 21.72 3.22 21.37C4.31 21.02 5.41 20.71 6.51 20.41C8.72 19.81 10.95 19.31 13.19 18.86C15.43 18.43 17.69 18.06 19.95 17.73C22.22 17.43 24.49 17.16 26.77 16.95C29.51 16.69 32.26 16.48 35.01 16.3C36.83 16.19 38.64 16.09 40.46 16C45.02 15.78 49.6 15.64 54.17 15.56L54.27 15.55L54.35 15.5C56.55 14.02 58.81 12.62 61.1 11.29C63.4 9.96 65.74 8.69 68.12 7.52C70.5 6.35 72.93 5.27 75.42 4.37C76.66 3.92 77.92 3.51 79.2 3.18C80.48 2.85 81.77 2.58 83.07 2.43C88.36 1.88 93.69 1.72 99.02 1.73C104.34 1.76 109.67 1.96 114.98 2.42C117.63 2.63 120.28 2.92 122.91 3.31C124.23 3.49 125.54 3.72 126.84 3.96L128.8 4.36C129.45 4.5 130.09 4.66 130.74 4.81C133.33 5.43 135.9 6.12 138.46 6.86C139.94 7.29 141.43 7.73 142.91 8.18C143.98 8.5 145.05 8.83 146.11 9.16C148.66 9.95 151.2 10.77 153.74 11.57C155.01 11.98 156.28 12.38 157.56 12.76C158.83 13.15 160.1 13.54 161.41 13.84C161.41 13.84 161.41 13.84 161.42 13.84C161.42 13.84 161.42 13.84 161.42 13.84C162.08 14.01 162.77 14 163.44 14.02L164.44 13.99L165.45 13.94C166.78 13.85 168.11 13.72 169.43 13.57C172.09 13.27 174.73 12.89 177.36 12.47C174.72 12.84 172.07 13.16 169.42 13.43C168.09 13.56 166.76 13.66 165.43 13.73L164.44 13.77L164.44 13.77L164.43 13.77L163.44 13.78L163.44 13.78L163.43 13.78C162.77 13.76 162.11 13.75 161.48 13.58C160.2 13.27 158.92 12.86 157.66 12.45C156.39 12.05 155.12 11.63 153.86 11.21C151.33 10.38 148.79 9.55 146.25 8.73C145.2 8.4 144.16 8.06 143.11 7.73C141.61 7.27 140.11 6.81 138.61 6.36C136.05 5.59 133.48 4.88 130.88 4.23C130.23 4.08 129.58 3.91 128.93 3.77L126.97 3.34C125.65 3.1 124.33 2.86 123.01 2.67C120.36 2.28 117.7 1.98 115.04 1.75C109.71 1.28 104.37 1.06 99.02 1.01C93.67 0.99 88.32 1.11 82.99 1.7C81.64 1.86 80.31 2.14 79.01 2.49C77.71 2.83 76.43 3.24 75.17 3.71C72.65 4.63 70.2 5.72 67.81 6.91C65.41 8.09 63.07 9.37 60.76 10.72C58.49 12.05 56.25 13.44 54.06 14.92ZM106.98 14.06L106.97 14.06L102.67 14.16L102.5 14.17L93.54 14.34L60.55 14.89Q63.76 13.03 67.01 11.29Q69.38 10.02 71.56 8.95Q74.19 7.66 76.2 6.82Q77.62 6.24 78.57 5.92Q79.86 5.48 80.96 5.25Q83.15 4.87 86.02 4.62Q90.79 4.21 96.27 4.22L96.29 3.26Q91.06 3.1 85.92 3.44Q84.44 3.54 83.33 3.66Q81.93 3.8 80.74 4L80.73 4L80.73 4Q79.53 4.23 78.15 4.68Q77.17 5 75.7 5.59Q73.64 6.41 70.95 7.69Q68.72 8.75 66.32 10Q61.93 12.3 57.3 15.04L56.43 15.55L56.68 16.45L57.69 16.44L70.64 16.27L75.63 16.19L93.57 15.83L102.54 15.58L107.02 15.41Q107.52 15.39 108.5 15.34Q109.01 15.31 109.27 15.3Q109.58 15.29 110.21 15.24Q110.35 15.23 110.41 15.22L110.99 15.18L111 15.17Q111.31 15.13 111.58 15.08Q112.61 14.9 113.81 14.62Q114.73 14.41 116 14.08Q117.98 13.56 120.33 12.88Q122.51 12.25 124.64 11.59Q125.67 11.27 126.78 10.9L127.84 10.54L128.39 10.34L128.4 10.34Q128.44 10.32 128.52 10.29Q128.66 10.23 128.74 10.2Q128.88 10.13 128.99 10.06Q129 10.06 129 10.05L128.45 9.26Q128.39 9.3 128.19 9.37Q128.1 9.4 128.05 9.42L127.53 9.6L126.47 9.93L124.33 10.56Q122.27 11.16 120.02 11.76Q117.65 12.4 115.7 12.87Q115.6 12.89 115.42 12.94Q114.06 13.26 113.39 13.41Q112.27 13.65 111.37 13.8Q110.75 13.88 110 13.93Q109.64 13.95 109.17 13.98L110.46 5.56L109.51 5.38L107.7 14.03L107.28 14.04L106.98 14.06ZM97.81 14.74L93.55 14.83L59.7 15.38L58.72 15.4C59 15.23 59.28 15.07 59.57 14.9C61.94 13.51 64.35 12.17 66.78 10.87C67.04 10.73 67.3 10.59 67.56 10.45C68.82 9.78 70.08 9.14 71.35 8.51C72.88 7.76 74.44 7.03 76.02 6.38C77.6 5.73 79.2 5.12 80.87 4.78C80.87 4.78 80.87 4.78 80.87 4.78C82.55 4.49 84.26 4.29 85.97 4.14C89.4 3.84 92.84 3.73 96.27 3.74C92.84 3.63 89.39 3.69 85.96 3.92C84.24 4.04 82.52 4.19 80.81 4.47C79.1 4.8 77.48 5.4 75.88 6.03C74.27 6.67 72.71 7.39 71.16 8.12C69.87 8.74 68.6 9.37 67.34 10.02C67.08 10.16 66.81 10.29 66.54 10.43C63.5 12.03 60.5 13.71 57.54 15.46L57.51 15.48L56.67 15.97L57.64 15.96L57.69 15.96C63.67 15.88 69.65 15.82 75.62 15.71L93.56 15.34C95.46 15.3 97.37 15.25 99.28 15.2C100.36 15.16 101.44 15.13 102.52 15.09C104.02 15.05 105.51 14.99 107.01 14.93C107.35 14.92 107.7 14.9 108.05 14.88C108.2 14.87 108.36 14.87 108.51 14.86C108.76 14.84 109 14.83 109.25 14.82C109.62 14.81 110 14.77 110.37 14.74L110.94 14.7C111.13 14.67 111.31 14.64 111.5 14.61C112.98 14.35 114.43 13.99 115.88 13.61C117.33 13.23 118.77 12.83 120.2 12.41C121.64 12 123.07 11.57 124.49 11.13C125.21 10.91 125.92 10.68 126.63 10.44L127.69 10.08L128.21 9.89C128.39 9.82 128.57 9.77 128.72 9.66C128.57 9.76 128.38 9.81 128.21 9.88L128.21 9.88L127.68 10.05L126.61 10.39L124.46 11.02C123.03 11.44 121.59 11.84 120.15 12.23C118.71 12.61 117.26 12.99 115.81 13.34C114.36 13.68 112.91 14.04 111.44 14.28C111.26 14.3 111.09 14.32 110.91 14.34C110.9 14.34 110.9 14.34 110.89 14.34C110.29 14.4 109.69 14.44 109.09 14.46C108.93 14.47 108.76 14.47 108.6 14.48L108.62 14.37L108.62 14.36L108.67 14L109.99 5.48L108.14 14.27L108.12 14.39L108.1 14.5C107.73 14.51 107.36 14.52 106.99 14.54C105.5 14.58 104 14.62 102.51 14.65L97.81 14.74ZM133.38 10.92L133.38 10.92L134.48 10.49L133.63 9.68Q132.26 8.38 130.77 7.26Q129.94 6.65 129.2 6.2Q128.2 5.59 127.4 5.34L127.16 5.26L126.91 5.2L126.44 5.08L126.43 5.08Q126.32 5.06 126.11 5.02Q125.7 4.94 125.5 4.91Q124.78 4.8 123.65 4.68Q122.13 4.52 119.96 4.39Q117.31 4.23 112.61 4.05L111.11 4L105.27 3.8L105.22 4.77L112.55 5.2Q117.24 5.47 119.87 5.68Q122.02 5.86 123.5 6.03Q124.6 6.16 125.28 6.28Q125.46 6.31 125.83 6.38Q126.04 6.42 126.14 6.45L126.56 6.55L126.76 6.6L126.95 6.67Q127.6 6.88 128.44 7.41Q129.13 7.84 129.89 8.42Q130.78 9.11 131.7 9.94Q129.39 10.8 126.95 11.65L126.65 11.76Q124.77 12.41 123.83 12.73Q122.27 13.26 121.01 13.65Q119.31 14.19 118.03 14.57Q116.42 15.04 115.03 15.38Q114.9 15.41 114.63 15.47Q113.9 15.65 113.54 15.71L112.78 15.85Q112.63 15.87 112.33 15.91Q112.14 15.93 112.04 15.94L111.68 15.98L111.31 16L110.53 16.03Q110.2 16.05 109.52 16.06Q109.16 16.07 108.97 16.08L99.26 16.23L96.4 16.27L83.82 16.46L71.23 16.66L58.65 16.92L52.26 17.08L46.06 17.26Q45.43 17.28 44.17 17.33Q40.61 17.46 38.82 17.53Q35.85 17.66 33.47 17.82L33.52 18.79Q37.82 18.65 43.2 18.56Q46.43 18.51 52.89 18.44Q56.75 18.39 58.67 18.37L71.25 18.26L83.84 18.12Q85.32 18.1 88.26 18.07Q95.18 18 98.64 17.95Q104.4 17.87 109.02 17.74Q109.21 17.74 109.57 17.73Q110.26 17.71 110.61 17.69L111.4 17.66L111.81 17.64L112.23 17.59Q112.33 17.57 112.51 17.55Q112.87 17.51 113.05 17.48L113.06 17.48L113.85 17.33Q114.24 17.26 115.01 17.07Q115.28 17.01 115.42 16.97Q116.85 16.62 118.49 16.13Q119.79 15.75 121.51 15.19Q126.73 13.5 133.38 10.92ZM111.72 16.47L111.33 16.48L110.55 16.51C110.04 16.54 109.51 16.54 108.99 16.56C104.8 16.66 100.6 16.69 96.41 16.76L83.83 16.95L71.24 17.14L58.69 17.4L58.66 17.4C54.46 17.5 50.27 17.6 46.08 17.74C41.88 17.9 37.69 18.03 33.5 18.3C41.89 18.03 50.28 17.99 58.67 17.89L58.7 17.89L71.25 17.77L83.83 17.63C92.22 17.54 100.61 17.48 109.01 17.26C109.53 17.24 110.05 17.24 110.58 17.21L111.38 17.17L111.77 17.16L112.17 17.11C112.44 17.07 112.71 17.04 112.97 17L113.76 16.85C114.28 16.76 114.79 16.62 115.31 16.5C117.35 15.99 119.36 15.38 121.36 14.73C125.32 13.45 129.22 12.01 133.1 10.51C133.13 10.49 133.17 10.48 133.2 10.47L133.6 10.31L133.3 10.03C133.27 10 133.24 9.97 133.21 9.95C132.34 9.13 131.43 8.37 130.48 7.65C130.34 7.54 130.2 7.44 130.05 7.34C129.69 7.08 129.33 6.84 128.95 6.61C128.42 6.29 127.86 5.99 127.25 5.79L127.02 5.72L126.8 5.66L126.34 5.55C126.04 5.5 125.73 5.44 125.43 5.39C124.82 5.3 124.21 5.22 123.6 5.16C122.38 5.03 121.15 4.94 119.93 4.87C117.48 4.72 115.04 4.63 112.59 4.53C110.15 4.44 107.7 4.36 105.25 4.29L112.58 4.72C115.03 4.86 117.47 5.01 119.91 5.2C121.12 5.3 122.34 5.41 123.55 5.55C124.16 5.62 124.76 5.7 125.36 5.8C125.66 5.85 125.95 5.92 126.24 5.97C126.24 5.97 126.25 5.97 126.25 5.97L126.27 5.98L126.68 6.09L126.89 6.14L126.9 6.14L126.92 6.15L127.11 6.21C127.66 6.4 128.19 6.69 128.7 7C129.07 7.23 129.43 7.48 129.78 7.74C129.92 7.84 130.05 7.94 130.18 8.04C130.88 8.58 131.56 9.15 132.21 9.75C132.34 9.87 132.47 10 132.6 10.12C132.43 10.18 132.27 10.24 132.1 10.31C130.44 10.92 128.78 11.52 127.11 12.11C125.13 12.79 123.15 13.48 121.16 14.11C119.17 14.75 117.17 15.35 115.14 15.85C114.64 15.96 114.13 16.1 113.62 16.18L112.86 16.33C112.61 16.36 112.35 16.39 112.1 16.42L111.72 16.47ZM137.64 8.02L137.64 8.02Q135.5 7.45 133.37 6.96L133.1 7.89Q135.21 8.6 137.3 9.23Q138.94 9.74 141.51 10.47Q144.05 11.19 145.75 11.63Q147.86 12.2 150.02 12.7L150.28 11.77Q148.2 11.06 146.09 10.43Q144.41 9.91 141.88 9.19Q139.29 8.46 137.64 8.02ZM150.13 12.23C148.74 11.76 147.35 11.31 145.95 10.89C144.55 10.46 143.15 10.05 141.74 9.65C140.34 9.25 138.93 8.86 137.52 8.49C136.1 8.11 134.68 7.76 133.26 7.43C134.64 7.9 136.04 8.35 137.44 8.77C138.83 9.2 140.24 9.61 141.64 10.01C143.05 10.41 144.46 10.8 145.87 11.17C147.28 11.54 148.7 11.9 150.13 12.23ZM69.78 13.44L69.81 14.4Q70.71 14.42 71.89 14.34Q72.98 14.26 73.98 14.08Q75.09 13.89 76.05 13.56Q77.28 13.13 78.06 12.51L78.84 11.88L77.98 11.35Q76.7 10.57 75.23 10.05Q74.38 9.77 73.69 9.67Q72.72 9.52 71.98 9.71Q71.37 9.85 70.51 10.19Q69.77 10.48 69.15 10.76Q68.52 11.04 67.82 11.39Q66.99 11.79 66.51 12.06L66.91 12.93L68.27 12.43L69.63 11.93Q69.73 11.9 69.94 11.82Q70.74 11.54 71.13 11.41Q71.78 11.2 72.29 11.08Q72.75 10.99 73.47 11.1Q74.03 11.19 74.74 11.43Q75.42 11.66 76.18 12.02Q75.9 12.16 75.58 12.28Q74.83 12.57 73.72 12.84Q71.86 13.26 69.78 13.44ZM76.87 11.28C76.29 10.98 75.69 10.73 75.07 10.51C74.6 10.35 74.12 10.22 73.62 10.15C73.54 10.13 73.46 10.12 73.39 10.12C72.96 10.07 72.52 10.07 72.09 10.17C71.6 10.29 71.14 10.46 70.69 10.64C70.23 10.81 69.79 11 69.35 11.2C68.9 11.39 68.46 11.6 68.03 11.82C67.6 12.03 67.16 12.25 66.74 12.48L68.1 11.97L69.46 11.48C70.36 11.16 71.28 10.82 72.19 10.61C72.57 10.53 72.98 10.55 73.39 10.6C73.44 10.61 73.49 10.62 73.54 10.62C74 10.7 74.46 10.83 74.9 10.98C75.49 11.18 76.07 11.43 76.63 11.7C76.65 11.71 76.67 11.73 76.7 11.74C76.85 11.81 77 11.89 77.15 11.97C77.16 11.98 77.17 11.98 77.19 11.99C77.18 11.99 77.18 12 77.17 12C77.03 12.1 76.87 12.2 76.71 12.29C76.41 12.46 76.09 12.6 75.76 12.73C75.14 12.97 74.49 13.15 73.83 13.31C72.52 13.61 71.17 13.8 69.82 13.92C70.5 13.94 71.18 13.9 71.86 13.85C72.54 13.81 73.22 13.72 73.89 13.6C74.57 13.49 75.24 13.33 75.89 13.1C76.49 12.9 77.07 12.64 77.6 12.25C77.65 12.21 77.7 12.17 77.75 12.13L78 11.93L77.73 11.77C77.67 11.73 77.62 11.7 77.56 11.67C77.33 11.53 77.1 11.4 76.87 11.28ZM159 14.41Q155.41 13.99 151.49 13.81L151.48 13.81Q147.82 13.66 143.93 13.78Q140.38 13.91 136.4 14.35Q132.32 14.81 128.93 15.39Q121.3 16.67 114.24 18.59L114.47 19.52Q118.72 18.64 121.8 18.11Q125.37 17.48 129.18 16.92Q133.37 16.32 136.57 16.01Q137.76 15.88 140.13 15.7L140.28 15.68L142.14 15.57Q142.52 15.55 143.3 15.52Q143.76 15.51 143.99 15.5Q151.03 15.23 158.85 15.95Q162.25 16.26 166.26 16.8Q169.33 17.2 173.66 17.87L173.84 16.92Q170.73 16.24 166.46 15.48Q162.48 14.8 159 14.41ZM158.95 14.89C156.46 14.6 153.97 14.41 151.46 14.29C148.96 14.19 146.45 14.19 143.95 14.27C141.44 14.35 138.94 14.55 136.45 14.83C133.96 15.11 131.48 15.44 129.02 15.87C127.7 16.09 126.38 16.33 125.07 16.58C121.47 17.27 117.9 18.09 114.37 19.05C116.82 18.55 119.26 18.06 121.72 17.64C122.86 17.44 124.01 17.24 125.15 17.05C126.47 16.84 127.79 16.64 129.11 16.44C131.58 16.09 134.05 15.77 136.53 15.53C137.76 15.4 139 15.3 140.25 15.2L142.11 15.09C142.73 15.05 143.35 15.04 143.97 15.01C148.95 14.83 153.93 15.01 158.89 15.47C160.19 15.59 161.5 15.73 162.8 15.88C166.45 16.3 170.09 16.83 173.73 17.39C171.29 16.86 168.84 16.4 166.38 15.96C165.22 15.76 164.05 15.57 162.88 15.4C161.57 15.21 160.26 15.04 158.95 14.89ZM151.03 22.05Q149.41 21.88 147.62 21.94L147.62 21.94Q144.11 22.08 140.93 23.13Q138.41 23.96 136.21 25.31Q135.54 25.73 134.9 26.2L135.43 27Q135.64 26.88 135.84 26.76Q138.41 25.28 141.33 24.42Q143.02 23.93 144.75 23.67Q146.2 23.45 147.67 23.4Q149.99 23.31 152.26 23.63Q153.17 23.75 154.08 23.95Q156.7 24.51 159.12 25.57Q159.65 25.8 160.17 26.06L160.64 25.21Q159.8 24.7 158.92 24.27Q156.77 23.21 154.38 22.63Q152.81 22.23 151.03 22.05ZM149.93 22.44C149.17 22.4 148.4 22.4 147.64 22.42C146.9 22.45 146.16 22.51 145.43 22.6C143.95 22.8 142.49 23.12 141.08 23.59C138.97 24.28 136.96 25.29 135.18 26.59C137.07 25.45 139.1 24.58 141.2 23.96C142.54 23.57 143.92 23.28 145.31 23.11C146.09 23.01 146.87 22.94 147.66 22.92C148.44 22.89 149.22 22.89 150 22.93C151.4 23 152.8 23.18 154.18 23.48C156.32 23.93 158.41 24.65 160.39 25.62C158.5 24.48 156.43 23.63 154.27 23.1C153.19 22.82 152.09 22.64 150.98 22.53C150.63 22.49 150.28 22.46 149.93 22.44ZM77.66 22.56L67.79 22.53L67.79 22.53L52.99 22.59L45.59 22.66L42.77 22.7L38.19 22.78L38.19 23.74L42.78 23.82L45.59 23.87L52.99 23.94L67.79 23.99L77.66 23.96L82.6 23.94L90 23.87L92.61 23.83L97.4 23.74L97.4 22.78L92.57 22.7L90 22.66L82.6 22.59L77.66 22.56ZM17.02 23.39L17.02 23.39Q15.25 23.98 13.74 24.96Q13.27 25.26 12.83 25.59L13.36 26.4Q15.26 25.31 17.42 24.69Q19.1 24.21 20.8 24.06Q21.27 24.02 21.74 24Q22.82 23.96 23.88 24.05Q25 24.14 26.11 24.36Q28.08 24.77 29.88 25.56Q30.09 25.65 30.3 25.75L30.76 24.91Q30.16 24.52 29.53 24.2Q28.06 23.46 26.41 23.04Q24.17 22.46 21.69 22.54Q19.22 22.64 17.02 23.39ZM70.26 23.5C69.44 23.5 68.62 23.51 67.79 23.51C67.11 23.51 66.42 23.51 65.73 23.5C61.49 23.49 57.24 23.49 52.99 23.45L45.59 23.38C43.13 23.34 40.66 23.32 38.19 23.26C40.66 23.21 43.13 23.18 45.59 23.14L52.99 23.07C57.24 23.04 61.48 23.03 65.72 23.02C66.41 23.02 67.1 23.02 67.79 23.01C68.62 23.02 69.44 23.02 70.26 23.02C74.37 23.03 78.48 23.04 82.59 23.07L89.99 23.14C92.46 23.18 94.93 23.21 97.39 23.26C94.93 23.32 92.46 23.34 89.99 23.38L82.59 23.45C78.48 23.49 74.37 23.49 70.26 23.5ZM20.15 23.16C19.14 23.29 18.14 23.52 17.17 23.85C15.71 24.34 14.33 25.06 13.12 25.98C14.44 25.22 15.84 24.64 17.29 24.22C18.22 23.96 19.16 23.77 20.12 23.65C20.65 23.58 21.19 23.54 21.73 23.52C22.28 23.5 22.82 23.51 23.37 23.53C24.32 23.58 25.27 23.7 26.21 23.89C27.68 24.19 29.12 24.67 30.5 25.31C29.22 24.5 27.79 23.89 26.3 23.51C25.32 23.26 24.32 23.11 23.32 23.05C22.78 23.01 22.25 23.01 21.71 23.02C21.19 23.05 20.67 23.09 20.15 23.16Z" fill="#3AC22C" fill-opacity="1.000000" fill-rule="evenodd"/>
	</g>
</svg>
