<svg width="24.000000" height="24.000000" viewBox="0 0 24 24" fill="none" xmlns="http://www.w3.org/2000/svg" xmlns:xlink="http://www.w3.org/1999/xlink">
	<desc>
			Created with Pixso.
	</desc>
	<defs>
		<clipPath id="clip287_33">
			<rect id="pin (2) 1" rx="-0.500000" width="23.000000" height="23.000000" transform="translate(0.500000 0.500000)" fill="white" fill-opacity="0"/>
		</clipPath>
	</defs>
	<rect id="pin (2) 1" rx="-0.500000" width="23.000000" height="23.000000" transform="translate(0.500000 0.500000)" fill="#FFFFFF" fill-opacity="0"/>
	<g clip-path="url(#clip287_33)">
		<path id="Vector" d="M12 0C7.11 0 3.13 3.97 3.13 8.86C3.13 10.47 3.85 12.2 3.88 12.27C4.11 12.83 4.57 13.69 4.91 14.19L10.98 23.4C11.23 23.78 11.6 24 12 24C12.39 24 12.76 23.78 13.01 23.4L19.08 14.19C19.42 13.69 19.88 12.83 20.11 12.27C20.14 12.2 20.86 10.47 20.86 8.86C20.86 3.97 16.88 0 12 0ZM19.15 11.87C18.94 12.37 18.51 13.16 18.21 13.62L12.13 22.83C12.01 23.01 11.98 23.01 11.86 22.83L5.78 13.62C5.48 13.16 5.05 12.36 4.84 11.87C4.83 11.85 4.17 10.25 4.17 8.86C4.17 4.55 7.68 1.04 12 1.04C16.31 1.04 19.82 4.55 19.82 8.86C19.82 10.26 19.15 11.85 19.15 11.87Z" fill="#3AC22C" fill-opacity="1.000000" fill-rule="nonzero"/>
		<path id="Vector" d="M12 4.17C9.41 4.17 7.3 6.27 7.3 8.86C7.3 11.45 9.41 13.56 12 13.56C14.58 13.56 16.69 11.45 16.69 8.86C16.69 6.27 14.58 4.17 12 4.17ZM12 12.51C9.98 12.51 8.34 10.87 8.34 8.86C8.34 6.85 9.98 5.21 12 5.21C14.01 5.21 15.65 6.85 15.65 8.86C15.65 10.87 14.01 12.51 12 12.51Z" fill="#3AC22C" fill-opacity="1.000000" fill-rule="nonzero"/>
	</g>
</svg>
