<svg width="24.000000" height="24.000000" viewBox="0 0 24 24" fill="none" xmlns="http://www.w3.org/2000/svg" xmlns:xlink="http://www.w3.org/1999/xlink">
	<desc>
			Created with Pixso.
	</desc>
	<defs>
		<clipPath id="clip287_144">
			<rect id="speedometer (2) 1" rx="-0.500000" width="23.000000" height="23.000000" transform="translate(0.500000 0.500000)" fill="white" fill-opacity="0"/>
		</clipPath>
	</defs>
	<rect id="speedometer (2) 1" rx="-0.500000" width="23.000000" height="23.000000" transform="translate(0.500000 0.500000)" fill="#FFFFFF" fill-opacity="0"/>
	<g clip-path="url(#clip287_144)">
		<path id="Vector" d="M18.44 6.86L19.15 7.57L15.41 11.3L14.7 10.6L18.44 6.86Z" fill="#3AC22C" fill-opacity="1.000000" fill-rule="nonzero"/>
		<path id="Vector" d="M14 14.01C12.89 14.01 12 13.11 12 12.01C12 10.91 12.89 10.01 14 10.01C15.1 10.01 16 10.91 16 12.01C16 13.11 15.1 14.01 14 14.01ZM14 11.01C13.45 11.01 13 11.46 13 12.01C13 12.56 13.45 13.01 14 13.01C14.54 13.01 15 12.56 15 12.01C15 11.46 14.54 11.01 14 11.01Z" fill="#3AC22C" fill-opacity="1.000000" fill-rule="nonzero"/>
		<path id="Vector" d="M14 22.01C10.4 22.01 7.06 20.07 5.29 16.94L6.16 16.44C7.76 19.26 10.76 21.01 14 21.01C18.96 21.01 23 16.97 23 12.01C23 7.05 18.96 3.01 14 3.01C10.76 3.01 7.76 4.75 6.16 7.57L5.3 7.07C7.07 3.95 10.4 2.01 14 2.01C19.51 2.01 24 6.5 24 12.01C24 17.52 19.51 22.01 14 22.01Z" fill="#3AC22C" fill-opacity="1.000000" fill-rule="nonzero"/>
		<path id="Vector" d="M2 14.51L8.5 14.51L8.5 15.51L2 15.51L2 14.51Z" fill="#3AC22C" fill-opacity="1.000000" fill-rule="nonzero"/>
		<path id="Vector" d="M0 11.51L6.5 11.51L6.5 12.51L0 12.51L0 11.51Z" fill="#3AC22C" fill-opacity="1.000000" fill-rule="nonzero"/>
		<path id="Vector" d="M2 8.51L8.5 8.51L8.5 9.51L2 9.51L2 8.51Z" fill="#3AC22C" fill-opacity="1.000000" fill-rule="nonzero"/>
	</g>
</svg>
