<svg width="24.000000" height="24.000000" viewBox="0 0 24 24" fill="none" xmlns="http://www.w3.org/2000/svg" xmlns:xlink="http://www.w3.org/1999/xlink">
	<desc>
			Created with Pixso.
	</desc>
	<defs>
		<clipPath id="clip286_316">
			<rect id="transmission 1" rx="-0.500000" width="23.000000" height="23.000000" transform="translate(0.500000 0.500000)" fill="white" fill-opacity="0"/>
		</clipPath>
	</defs>
	<rect id="transmission 1" rx="-0.500000" width="23.000000" height="23.000000" transform="translate(0.500000 0.500000)" fill="#FFFFFF" fill-opacity="0"/>
	<g clip-path="url(#clip286_316)">
		<path id="Vector" d="M22.87 12C22.87 11.44 22.67 10.9 22.31 10.47C21.95 10.05 21.45 9.77 20.9 9.68L20.9 6.59C21.48 6.49 22.01 6.18 22.37 5.72C22.74 5.25 22.91 4.67 22.87 4.08C22.82 3.49 22.55 2.94 22.12 2.54C21.68 2.14 21.11 1.91 20.52 1.91C19.93 1.91 19.36 2.14 18.93 2.54C18.49 2.94 18.23 3.49 18.18 4.08C18.13 4.67 18.31 5.25 18.67 5.72C19.04 6.18 19.56 6.49 20.15 6.59L20.15 9.68C19.66 9.76 19.21 9.99 18.86 10.34C18.51 10.68 18.28 11.13 18.2 11.62L15.12 11.62C15.03 11.13 14.8 10.68 14.46 10.34C14.11 9.99 13.66 9.76 13.17 9.68L13.17 6.59C13.76 6.49 14.28 6.18 14.65 5.72C15.01 5.25 15.19 4.67 15.14 4.08C15.09 3.49 14.83 2.94 14.39 2.54C13.96 2.14 13.39 1.91 12.8 1.91C12.21 1.91 11.64 2.14 11.2 2.54C10.77 2.94 10.5 3.49 10.45 4.08C10.41 4.67 10.58 5.25 10.95 5.72C11.31 6.18 11.84 6.49 12.42 6.59L12.42 9.68C11.94 9.76 11.49 9.99 11.15 10.34C10.8 10.69 10.57 11.14 10.5 11.62L3.85 11.62L3.85 6.59C4.43 6.49 4.96 6.18 5.32 5.72C5.69 5.25 5.86 4.67 5.81 4.08C5.77 3.49 5.5 2.94 5.07 2.54C4.63 2.14 4.06 1.91 3.47 1.91C2.88 1.91 2.31 2.14 1.88 2.54C1.44 2.94 1.17 3.49 1.13 4.08C1.08 4.67 1.26 5.25 1.62 5.72C1.99 6.18 2.51 6.49 3.1 6.59L3.1 12C3.1 12.09 3.14 12.19 3.21 12.26C3.28 12.33 3.37 12.37 3.47 12.37L10.5 12.37C10.58 12.86 10.81 13.3 11.15 13.65C11.5 14 11.95 14.23 12.44 14.31L12.44 17.4C11.85 17.5 11.33 17.81 10.97 18.27C10.6 18.74 10.43 19.32 10.47 19.91C10.52 20.5 10.79 21.04 11.22 21.44C11.65 21.85 12.22 22.07 12.81 22.07C13.4 22.07 13.97 21.85 14.4 21.44C14.84 21.04 15.11 20.5 15.15 19.91C15.2 19.32 15.02 18.74 14.66 18.27C14.3 17.81 13.77 17.5 13.19 17.4L13.19 14.31C13.67 14.23 14.12 14 14.46 13.65C14.81 13.3 15.04 12.85 15.12 12.37L18.2 12.37C18.28 12.86 18.51 13.31 18.86 13.65C19.21 14 19.66 14.23 20.15 14.31L20.15 17.4C19.56 17.5 19.04 17.81 18.68 18.27C18.31 18.74 18.14 19.32 18.18 19.91C18.23 20.5 18.5 21.04 18.93 21.44C19.36 21.85 19.93 22.07 20.52 22.07C21.11 22.07 21.68 21.85 22.11 21.44C22.55 21.04 22.82 20.5 22.86 19.91C22.91 19.32 22.73 18.74 22.37 18.27C22.01 17.81 21.48 17.5 20.9 17.4L20.9 14.31C21.45 14.22 21.95 13.94 22.31 13.52C22.67 13.09 22.87 12.55 22.87 12ZM1.87 4.27C1.87 3.95 1.96 3.64 2.14 3.38C2.32 3.12 2.57 2.91 2.86 2.79C3.15 2.67 3.47 2.64 3.79 2.7C4.1 2.76 4.38 2.91 4.6 3.14C4.83 3.36 4.98 3.65 5.04 3.96C5.1 4.27 5.07 4.59 4.95 4.89C4.83 5.18 4.62 5.43 4.36 5.6C4.09 5.78 3.78 5.87 3.47 5.87C3.26 5.87 3.05 5.83 2.86 5.75C2.66 5.67 2.48 5.55 2.34 5.4C2.19 5.25 2.07 5.08 1.99 4.88C1.91 4.69 1.87 4.48 1.87 4.27ZM11.2 4.27C11.2 3.95 11.29 3.64 11.47 3.38C11.64 3.12 11.89 2.91 12.18 2.79C12.48 2.67 12.8 2.64 13.11 2.7C13.42 2.76 13.71 2.91 13.93 3.14C14.15 3.36 14.31 3.65 14.37 3.96C14.43 4.27 14.4 4.59 14.28 4.88C14.16 5.18 13.95 5.43 13.69 5.6C13.42 5.78 13.11 5.87 12.8 5.87C12.37 5.87 11.97 5.7 11.67 5.4C11.37 5.1 11.2 4.69 11.2 4.27ZM14.39 19.72C14.39 20.04 14.3 20.35 14.12 20.61C13.95 20.87 13.7 21.08 13.41 21.2C13.11 21.32 12.79 21.35 12.48 21.29C12.17 21.23 11.88 21.08 11.66 20.85C11.44 20.63 11.28 20.34 11.22 20.03C11.16 19.72 11.19 19.4 11.32 19.1C11.44 18.81 11.64 18.56 11.91 18.39C12.17 18.21 12.48 18.12 12.8 18.12C13.01 18.12 13.22 18.16 13.41 18.24C13.6 18.32 13.78 18.44 13.93 18.59C14.08 18.74 14.19 18.91 14.27 19.11C14.35 19.3 14.4 19.51 14.39 19.72ZM12.8 13.6C12.48 13.6 12.17 13.5 11.91 13.33C11.64 13.15 11.44 12.9 11.32 12.61C11.19 12.32 11.16 12 11.22 11.68C11.28 11.37 11.44 11.09 11.66 10.86C11.88 10.64 12.17 10.49 12.48 10.42C12.79 10.36 13.11 10.39 13.41 10.52C13.7 10.64 13.95 10.84 14.12 11.1C14.3 11.37 14.39 11.68 14.39 12C14.39 12.42 14.23 12.82 13.93 13.12C13.63 13.42 13.22 13.59 12.8 13.6ZM18.92 4.27C18.92 3.95 19.02 3.64 19.19 3.38C19.37 3.12 19.62 2.91 19.91 2.79C20.2 2.67 20.52 2.64 20.83 2.7C21.15 2.76 21.43 2.91 21.65 3.14C21.88 3.36 22.03 3.65 22.09 3.96C22.15 4.27 22.12 4.59 22 4.88C21.88 5.18 21.68 5.43 21.41 5.6C21.15 5.78 20.84 5.87 20.52 5.87C20.1 5.87 19.69 5.7 19.39 5.4C19.09 5.1 18.92 4.69 18.92 4.27ZM18.92 12C18.92 11.68 19.02 11.37 19.19 11.11C19.37 10.84 19.62 10.64 19.91 10.52C20.2 10.39 20.52 10.36 20.83 10.42C21.15 10.49 21.43 10.64 21.65 10.86C21.88 11.09 22.03 11.37 22.09 11.68C22.15 11.99 22.12 12.31 22 12.61C21.88 12.9 21.68 13.15 21.41 13.33C21.15 13.5 20.84 13.6 20.52 13.6C20.1 13.6 19.69 13.43 19.39 13.13C19.09 12.83 18.92 12.42 18.92 12ZM22.12 19.72C22.12 20.04 22.03 20.35 21.85 20.61C21.67 20.87 21.42 21.08 21.13 21.2C20.84 21.32 20.52 21.35 20.2 21.29C19.89 21.23 19.61 21.08 19.39 20.85C19.16 20.63 19.01 20.34 18.95 20.03C18.89 19.72 18.92 19.4 19.04 19.1C19.16 18.81 19.37 18.56 19.63 18.39C19.9 18.21 20.21 18.12 20.52 18.12C20.73 18.12 20.94 18.16 21.13 18.24C21.33 18.32 21.51 18.44 21.65 18.59C21.8 18.74 21.92 18.91 22 19.11C22.08 19.3 22.12 19.51 22.12 19.72Z" fill="#3AC22C" fill-opacity="1.000000" fill-rule="nonzero"/>
	</g>
</svg>
